<svg width="30" height="30" viewBox="0 0 30 30" fill="none" xmlns="http://www.w3.org/2000/svg">
<path d="M21.6712 12.9587C22.2437 13.52 22.9975 13.8 23.75 13.8C24.5025 13.8 25.2563 13.52 25.8288 12.9587L28.1688 10.67C29.35 9.49 30 7.92 30 6.25C30 4.58 29.35 3.01125 28.1688 1.83C26.9888 0.65 25.4188 0 23.75 0C22.0812 0 20.5112 0.65 19.33 1.83C16.8925 4.2675 16.8925 8.2325 19.335 10.6737L21.6712 12.9587ZM20.2137 2.715C21.1587 1.77125 22.4137 1.25125 23.75 1.25125C25.0863 1.25125 26.3412 1.77125 27.285 2.715C28.23 3.65875 28.75 4.915 28.75 6.25125C28.75 7.5875 28.23 8.8425 27.29 9.7825L24.955 12.0662C24.2913 12.7162 23.21 12.7162 22.545 12.0662L20.2137 9.7875C18.2638 7.8375 18.2638 4.665 20.2137 2.71625V2.715ZM2.5 25C1.12125 25 0 26.1213 0 27.5C0 28.8787 1.12125 30 2.5 30C3.87875 30 5 28.8787 5 27.5C5 26.1213 3.87875 25 2.5 25ZM2.5 28.75C1.81125 28.75 1.25 28.1887 1.25 27.5C1.25 26.8113 1.81125 26.25 2.5 26.25C3.18875 26.25 3.75 26.8113 3.75 27.5C3.75 28.1887 3.18875 28.75 2.5 28.75ZM13.125 20C13.125 21.3787 14.2463 22.5 15.625 22.5C17.0037 22.5 18.125 21.3787 18.125 20C18.125 18.6213 17.0037 17.5 15.625 17.5C14.2463 17.5 13.125 18.6213 13.125 20ZM16.875 20C16.875 20.6887 16.3137 21.25 15.625 21.25C14.9362 21.25 14.375 20.6887 14.375 20C14.375 19.3113 14.9362 18.75 15.625 18.75C16.3137 18.75 16.875 19.3113 16.875 20ZM10.625 21.25H6.875C4.4625 21.25 2.5 19.2875 2.5 16.875C2.5 14.4625 4.4625 12.5 6.875 12.5H18.125C18.47 12.5 18.75 12.78 18.75 13.125C18.75 13.47 18.47 13.75 18.125 13.75H6.875C5.1525 13.75 3.75 15.1525 3.75 16.875C3.75 18.5975 5.1525 20 6.875 20H10.625C10.97 20 11.25 20.28 11.25 20.625C11.25 20.97 10.97 21.25 10.625 21.25ZM30 24.375C30 26.7875 28.0375 28.75 25.625 28.75H8.125C7.78 28.75 7.5 28.47 7.5 28.125C7.5 27.78 7.78 27.5 8.125 27.5H25.625C27.3475 27.5 28.75 26.0975 28.75 24.375C28.75 22.6525 27.3475 21.25 25.625 21.25H20.625C20.28 21.25 20 20.97 20 20.625C20 20.28 20.28 20 20.625 20H25.625C28.0375 20 30 21.9625 30 24.375ZM25.0012 5.98375C25.0012 6.67375 24.4412 7.23375 23.7512 7.23375C23.0612 7.23375 22.5012 6.67375 22.5012 5.98375C22.5012 5.29375 23.0612 4.73375 23.7512 4.73375C24.4412 4.73375 25.0012 5.29375 25.0012 5.98375Z" fill="white"/>
</svg>
