<svg width="30" height="28" viewBox="0 0 30 28" fill="none" xmlns="http://www.w3.org/2000/svg">
<path d="M29.5863 13.7513L25.9862 3.8525C25.1475 1.54875 22.9375 0 20.4862 0H9.51375C7.0625 0 4.8525 1.54875 4.01375 3.8525L0.41375 13.7513C0.13875 14.505 0 15.295 0 16.1V18.1237C0 19.8625 1.0275 21.355 2.5 22.06V24.3738C2.5 26.0963 3.90125 27.4988 5.625 27.4988C7.34875 27.4988 8.75 26.0963 8.75 24.3738V22.4988H21.25V24.3738C21.25 26.0963 22.6513 27.4988 24.375 27.4988C26.0987 27.4988 27.5 26.0963 27.5 24.3738V22.06C28.9725 21.355 30 19.8625 30 18.1237V16.1C30 15.295 29.8612 14.505 29.5863 13.7513ZM5.1875 4.28C5.84625 2.4675 7.58625 1.25 9.51375 1.25H20.485C22.4125 1.25 24.1525 2.4675 24.8113 4.28L26.8913 10H3.1075L5.1875 4.28ZM7.5 24.375C7.5 25.4088 6.65875 26.25 5.625 26.25C4.59125 26.25 3.75 25.4088 3.75 24.375V22.4362C3.95625 22.4662 4.16125 22.5 4.375 22.5H7.5V24.375ZM18.75 21.25H11.25V20C11.25 19.3113 11.81 18.75 12.5 18.75H17.5C18.19 18.75 18.75 19.3113 18.75 20V21.25ZM26.25 24.375C26.25 25.4088 25.4088 26.25 24.375 26.25C23.3412 26.25 22.5 25.4088 22.5 24.375V22.5H25.625C25.8388 22.5 26.0438 22.4662 26.25 22.4362V24.375ZM28.75 18.125C28.75 19.8475 27.3487 21.25 25.625 21.25H20V20C20 18.6213 18.8787 17.5 17.5 17.5H12.5C11.1213 17.5 10 18.6213 10 20V21.25H4.375C2.65125 21.25 1.25 19.8475 1.25 18.125V16.1012C1.25 15.7287 1.29625 15.3625 1.36875 15H4.375C4.72 15 5 14.72 5 14.375C5 14.03 4.72 13.75 4.375 13.75H1.74375L2.6525 11.25H27.3463L28.255 13.75H25.6238C25.2788 13.75 24.9988 14.03 24.9988 14.375C24.9988 14.72 25.2788 15 25.6238 15H28.63C28.7025 15.3612 28.7488 15.7287 28.7488 16.1012L28.75 18.125Z" fill="white"/>
</svg>
