<svg width="30" height="30" viewBox="0 0 30 30" fill="none" xmlns="http://www.w3.org/2000/svg">
<path d="M8.75006 5C10.1288 5 11.2501 3.87875 11.2501 2.5C11.2501 1.12125 10.1288 0 8.75006 0C7.37131 0 6.25006 1.12125 6.25006 2.5C6.25006 3.87875 7.37131 5 8.75006 5ZM8.75006 1.25C9.43881 1.25 10.0001 1.81125 10.0001 2.5C10.0001 3.18875 9.43881 3.75 8.75006 3.75C8.06131 3.75 7.50006 3.18875 7.50006 2.5C7.50006 1.81125 8.06131 1.25 8.75006 1.25ZM15.0001 8.75C16.3788 8.75 17.5001 7.62875 17.5001 6.25C17.5001 4.87125 16.3788 3.75 15.0001 3.75C13.6213 3.75 12.5001 4.87125 12.5001 6.25C12.5001 7.62875 13.6213 8.75 15.0001 8.75ZM15.0001 5C15.6888 5 16.2501 5.56125 16.2501 6.25C16.2501 6.93875 15.6888 7.5 15.0001 7.5C14.3113 7.5 13.7501 6.93875 13.7501 6.25C13.7501 5.56125 14.3113 5 15.0001 5ZM21.2501 5C22.6288 5 23.7501 3.87875 23.7501 2.5C23.7501 1.12125 22.6288 0 21.2501 0C19.8713 0 18.7501 1.12125 18.7501 2.5C18.7501 3.87875 19.8713 5 21.2501 5ZM21.2501 1.25C21.9388 1.25 22.5001 1.81125 22.5001 2.5C22.5001 3.18875 21.9388 3.75 21.2501 3.75C20.5613 3.75 20.0001 3.18875 20.0001 2.5C20.0001 1.81125 20.5613 1.25 21.2501 1.25ZM30.0001 8.125V20.7512C30.0001 23.255 29.0251 25.61 27.2538 27.38L24.8163 29.8175C24.6938 29.94 24.5338 30 24.3738 30C24.2138 30 24.0538 29.9387 23.9313 29.8175C23.6876 29.5737 23.6876 29.1775 23.9313 28.9338L26.3688 26.4963C27.9038 24.9613 28.7488 22.9212 28.7488 20.7512V8.125C28.7488 7.09125 27.9076 6.25 26.8738 6.25C25.8401 6.25 24.9988 7.09125 24.9988 8.125C24.9988 8.125 24.9876 18.1712 24.9851 18.1963C24.9688 18.885 24.7363 19.57 24.2688 20.1262L20.9713 23.5588C20.8488 23.6863 20.6851 23.75 20.5213 23.75C20.3651 23.75 20.2088 23.6925 20.0876 23.575C19.8388 23.3363 19.8313 22.94 20.0701 22.6912L23.3401 19.29C23.6226 18.9525 23.7601 18.5212 23.7501 18.0875V18.0825C23.7388 17.6488 23.5813 17.215 23.2726 16.87C22.5851 16.1038 21.4013 16.0375 20.6313 16.725L17.2201 19.865C16.5688 20.465 16.0638 21.1825 15.6851 21.98C16.0488 22.9112 16.2501 23.9075 16.2501 24.925V29.3738C16.2501 29.7188 15.9701 29.9988 15.6251 29.9988C15.2801 29.9988 15.0001 29.7188 15.0001 29.3738V24.925C15.0001 23.0075 14.1913 21.1637 12.7801 19.8662L9.36256 16.7213C8.60131 16.0387 7.41506 16.1038 6.72756 16.8713C6.11006 17.56 6.09381 18.6138 6.68756 19.3212L9.92881 22.69C10.1676 22.9388 10.1601 23.335 9.91131 23.5737C9.66131 23.8137 9.26631 23.805 9.02756 23.5562L5.75756 20.155C5.28256 19.5913 5.02506 18.9088 4.99881 18.225C4.99256 18.19 4.99881 8.1225 4.99881 8.1225C4.99881 7.08875 4.15756 6.2475 3.12381 6.2475C2.09006 6.2475 1.24881 7.08875 1.24881 8.1225V20.7488C1.24881 22.9188 2.09381 24.96 3.62881 26.4937L6.06631 28.9313C6.31006 29.175 6.31006 29.5712 6.06631 29.815C5.94381 29.9375 5.78381 29.9975 5.62381 29.9975C5.46381 29.9975 5.30381 29.9362 5.18131 29.815L2.74381 27.3775C0.972559 25.6063 -0.00244141 23.2525 -0.00244141 20.7488V8.125C-0.00244141 6.4025 1.40006 5 3.12256 5C4.55881 5 5.75881 5.97875 6.12256 7.30125C6.81506 6.6525 7.74006 6.25 8.74756 6.25C9.26381 6.25 9.76381 6.35 10.2376 6.5475C10.5563 6.68 10.7063 7.04625 10.5738 7.365C10.4413 7.68375 10.0763 7.83625 9.75631 7.70125C9.43631 7.56875 9.09631 7.5 8.74631 7.5C7.54631 7.5 6.50381 8.3225 6.24631 9.46V15.625C7.41256 14.7513 9.07256 14.7887 10.1988 15.7963L13.6226 18.9475C14.1601 19.4412 14.6138 20.0087 14.9951 20.6175C15.3776 20.005 15.8326 19.4425 16.3701 18.9475L19.7876 15.8025C20.9188 14.7888 22.5801 14.7513 23.7463 15.625V9.46C23.4888 8.3225 22.4463 7.5 21.2463 7.5C20.8963 7.5 20.5563 7.5675 20.2363 7.70125C19.9201 7.835 19.5526 7.68375 19.4188 7.365C19.2863 7.04625 19.4363 6.68 19.7551 6.5475C20.2288 6.35 20.7301 6.25 21.2451 6.25C22.2526 6.25 23.1776 6.6525 23.8701 7.30125C24.2351 5.98 25.4351 5 26.8701 5C28.5926 5 29.9951 6.4025 29.9951 8.125H30.0001ZM10.4838 12.8512C11.3413 11.0925 13.0951 10 15.0626 10C17.0301 10 18.7851 11.0925 19.6413 12.8512C19.7926 13.1625 19.6151 13.7987 19.0801 13.75C18.8476 13.75 18.6263 13.6213 18.5176 13.3988C17.8713 12.0725 16.5476 11.25 15.0613 11.25C13.5751 11.25 12.2513 12.0737 11.6051 13.3988C11.4538 13.7087 11.0813 13.84 10.7701 13.6863C10.4601 13.535 10.3313 13.1613 10.4826 12.8512H10.4838Z" fill="white"/>
</svg>
