<svg width="30" height="30" viewBox="0 0 30 30" fill="none" xmlns="http://www.w3.org/2000/svg">
<path d="M29.2675 0.73125C28.795 0.26 28.1675 0 27.5012 0L20.0012 0.0025C18.6225 0.0025 17.5013 1.125 17.5013 2.50375L17.5037 12.3263C17.5037 12.8737 17.8088 13.365 18.3 13.6063C18.5025 13.7063 18.7188 13.755 18.9338 13.755C19.2413 13.755 19.545 13.655 19.8013 13.4587L22.6787 11.25H30.0012V2.5C30.0012 1.8325 29.7413 1.205 29.2688 0.7325L29.2675 0.73125ZM28.75 10H22.2525L19.0387 12.4675C18.9675 12.5225 18.8988 12.51 18.8525 12.4862C18.8075 12.4638 18.7537 12.4175 18.7537 12.3275L18.7513 2.505C18.7513 1.815 19.3112 1.255 20.0012 1.25375L27.5012 1.25125C27.835 1.25125 28.1488 1.38125 28.3838 1.61625C28.6188 1.8525 28.75 2.16625 28.75 2.5V10ZM17.6887 21.5162C13.4438 19.79 10.3512 16.695 8.48875 12.305L12.7038 8.08875L5.605 0.99125L2.0075 4.59C0.7125 5.88125 0 7.63 0 9.51625C0 18.5138 11.485 29.9988 20.4837 29.9988C22.3687 29.9988 24.1187 29.2863 25.41 27.9938L29.0088 24.395L21.91 17.2962L17.6887 21.5162ZM24.5263 27.11C23.47 28.1675 22.035 28.75 20.4837 28.75C12.2137 28.75 1.25 17.785 1.25 9.51625C1.25 7.96375 1.8325 6.52875 2.89 5.47375L5.605 2.75875L10.9362 8.09L7.0175 12.0088L7.17125 12.3925C9.2025 17.45 12.7175 20.9625 17.6175 22.8337L17.9963 22.9775L21.91 19.065L27.2412 24.3962L24.5263 27.11Z" fill="white"/>
</svg>
