<svg width="30" height="30" viewBox="0 0 30 30" fill="none" xmlns="http://www.w3.org/2000/svg">
<path d="M10.18 4.81372C9.93875 4.56747 9.94125 4.17122 10.1863 3.92872L13.5238 0.642473C14.285 -0.176277 15.7438 -0.165027 16.5037 0.671223L19.8137 3.92872C20.0588 4.17122 20.0625 4.56747 19.82 4.81372C19.5775 5.05872 19.1825 5.06247 18.935 4.81997L15.6438 1.57872L15.6237 10.6262C15.6237 10.9712 15.3425 11.25 14.9987 11.25C14.6537 11.25 14.3737 10.9687 14.375 10.6237L14.395 1.53747L11.0637 4.81997C10.815 5.06122 10.4212 5.05747 10.1787 4.81372H10.18ZM27.5 17.5C27.5 24.3925 21.8925 30 15 30C8.1075 30 2.5 24.3925 2.5 17.5C2.5 13.4625 4.4675 9.65122 7.7625 7.30747C8.045 7.10747 8.435 7.17372 8.63375 7.45372C8.83375 7.73497 8.7675 8.12622 8.4875 8.32497C6.7275 9.57747 5.4025 11.2987 4.60375 13.2462L12.8988 14.7975C14.245 15.0662 15.6125 15.065 16.9462 14.7987L25.3463 13.1362C24.5425 11.2337 23.2375 9.55247 21.5112 8.32372C21.23 8.12372 21.165 7.73372 21.365 7.45247C21.5637 7.17122 21.9537 7.10372 22.2362 7.30622C25.5312 9.64997 27.4988 13.4612 27.4988 17.4987L27.5 17.5ZM12.5 28.46V23.65C12.5 23.0762 12.355 22.505 12.0825 22L11.445 20.8212C10.9525 19.9125 10.09 19.275 9.07625 19.0725L3.77625 18.0012C4.0025 23.12 7.65625 27.3562 12.5013 28.4612L12.5 28.46ZM15 28.75C15.4225 28.75 15.8387 28.7225 16.25 28.6762V23.65C16.25 22.8687 16.4462 22.0925 16.8188 21.405L17.4575 20.225C18.1275 18.9887 19.3025 18.1212 20.68 17.8462L26.2075 16.7812C26.1537 15.9425 26.0075 15.1225 25.7725 14.3287L17.1925 16.0275C15.7075 16.325 14.1525 16.325 12.6637 16.0275L4.19375 14.4437C3.9825 15.1862 3.85125 15.95 3.7975 16.73L9.3225 17.8475C10.7 18.1237 11.8737 18.9912 12.5437 20.2262L13.1825 21.405C13.5537 22.0925 13.7513 22.8687 13.7513 23.65V28.6762C14.1625 28.7225 14.5788 28.75 15.0013 28.75H15ZM26.2225 18.0512L20.9212 19.0725C19.9125 19.2737 19.0487 19.9112 18.5562 20.82L17.9175 21.9987C17.645 22.5037 17.5 23.0737 17.5 23.6487V28.4587C22.3275 27.3575 25.9725 23.1462 26.2225 18.05V18.0512Z" fill="white"/>
</svg>
