<svg width="28" height="12" viewBox="0 0 28 12" fill="none" xmlns="http://www.w3.org/2000/svg">
<g clip-path="url(#clip0_1588_100)">
<path d="M27.6427 5.28684C27.3361 4.29549 19.7913 3.55167 19.7913 3.55167C18.3369 1.1874 14.9528 0.328851 14.9528 0.328851C11.5178 -0.476698 2.01973 0.452925 2.01973 0.452925C1.34495 0.452925 2.32642 1.07267 2.32642 1.07267C1.09936 2.93192 0.547379 4.29549 0.547379 4.29549C0.485979 5.03901 0.731577 5.96863 0.731577 5.96863C0.485979 6.2785 0.17929 6.77449 0.17929 6.77449C-0.311288 7.88991 0.36318 8.81954 0.36318 8.81954C0.915158 9.25349 3.23322 9.39253 3.23322 9.39253C3.23322 9.39253 3.16133 6.25232 6.29178 5.94307C6.91379 5.88165 8.0665 6.0394 8.87426 6.92382C9.22877 7.31194 9.85634 8.2372 9.7357 9.72142C15.7093 9.87729 20.3057 9.93527 20.3057 9.93527C20.3232 9.93527 20.33 9.93496 20.3609 9.93465V9.50132C20.3609 9.50132 20.1036 6.60771 22.7598 6.03067C23.7807 5.80902 25.2954 5.85515 26.3228 7.19348C26.7122 7.70037 26.9732 8.62688 26.8353 9.43804L27.3357 9.31552C28.6239 8.44763 27.6424 5.28684 27.6424 5.28684H27.6427ZM7.64195 3.30134C4.75987 3.12926 2.5751 2.99708 2.5751 2.99708C3.31097 1.92779 4.27732 1.23073 4.27732 1.23073C4.6451 0.905267 5.88728 0.858817 5.88728 0.858817C6.80796 0.805509 7.6691 0.770594 8.46945 0.749395L7.64195 3.30134ZM8.52468 3.35402L9.18403 0.733808C11.4558 0.695151 11.6375 0.769346 12.7656 0.848841L12.8948 3.70193C10.9517 3.58908 10.4025 3.46563 8.52468 3.35402ZM14.1691 3.7755L13.6461 0.888121C14.3163 0.944859 14.3271 0.994738 14.3271 0.998167C17.8228 1.64909 18.8913 4.06574 18.8913 4.06574C18.1271 4.03675 16.7007 3.92078 14.1691 3.7755ZM6.50806 12.0003C4.9885 12.0003 3.75249 10.7511 3.75249 9.21608C3.75249 7.68105 4.98881 6.43188 6.50806 6.43188C8.02731 6.43188 9.26363 7.68105 9.26363 9.21608C9.26363 10.7511 8.02731 12.0003 6.50806 12.0003ZM6.50806 7.49182C5.56702 7.49182 4.80153 8.26525 4.80153 9.21608C4.80153 10.1669 5.56702 10.9403 6.50806 10.9403C7.44911 10.9403 8.2146 10.1669 8.2146 9.21608C8.2146 8.26525 7.44911 7.49182 6.50806 7.49182ZM23.6663 12.0003C22.1467 12.0003 20.9107 10.7511 20.9107 9.21608C20.9107 7.68105 22.147 6.43188 23.6663 6.43188C25.1855 6.43188 26.4219 7.68105 26.4219 9.21608C26.4219 10.7511 25.1855 12.0003 23.6663 12.0003ZM23.6663 7.49182C22.7252 7.49182 21.9597 8.26525 21.9597 9.21608C21.9597 10.1669 22.7252 10.9403 23.6663 10.9403C24.6073 10.9403 25.3728 10.1669 25.3728 9.21608C25.3728 8.26525 24.6073 7.49182 23.6663 7.49182Z" fill="white"/>
</g>
<defs>
<clipPath id="clip0_1588_100">
<rect width="28" height="12" fill="white"/>
</clipPath>
</defs>
</svg>
