<svg width="1920" height="1640" viewBox="0 0 1920 1640" fill="none" xmlns="http://www.w3.org/2000/svg">
<path d="M1919.95 40.9781C1904.73 45.7097 1900 46.316 1885.68 53.5649L1858.08 67.5224C1851.17 71.0151 1843.97 72.4781 1836.21 72.7153C1828.52 72.9525 1821.63 74.1519 1814.11 75.7994C1795.84 79.8192 1777.64 81.7567 1759.08 83.681C1751.67 84.4586 1744.75 85.513 1737.83 88.0699C1732.28 90.1259 1726.8 91.9184 1720.8 92.1952C1713.05 92.551 1705.85 91.8788 1698.25 90.1259C1682.21 86.4092 1666.56 81.7962 1651.61 75.0481C1647.75 73.2952 1644.79 71.4895 1640.37 71.1996L1621.41 69.9607C1606.93 69.0117 1592.96 66.7711 1578.88 63.8584C1571.37 61.5256 1564.37 59.2982 1557.21 56.4645C1550.8 53.9339 1558.11 53.13 1540.16 48.5038C1524.13 44.3785 1508.4 40.4509 1492.01 37.67C1485.97 36.6551 1480.16 37.0769 1474.12 36.8528C1461.17 36.3651 1448.55 36.352 1435.69 34.9813C1419.76 33.2942 1403.65 20.1802 1379.89 18.3878L1365.25 17.2807C1339.51 15.33 1293.29 8.25243 1267.75 1.83382C1266.43 -0.0113633 1264.41 -0.235422 1262.03 0.173155C1242.41 3.57357 1223.37 8.26561 1204.45 14.3415C1189.4 19.1786 1190.97 26.6384 1170.43 31.0141C1154.44 34.4145 1147.52 46.8168 1121.03 55.5419C1109.27 59.4168 1098.33 64.2274 1086.99 69.0381C1084.11 70.2506 1080.49 69.7234 1077.44 69.618L1056.75 68.9195C1049.67 68.6822 1043.01 67.2456 1036.15 65.7299L998.347 57.4134C989.92 55.5551 981.76 54.013 973.053 54.0657L929.56 54.3162C918.24 54.382 907.427 53.8812 896.307 52.2733C888.84 51.1925 882.067 48.6883 874.867 46.4478C860.387 41.9271 840.693 35.1394 825.787 34.4277C802.467 33.3206 783.12 26.0848 766.453 25.3863C752.44 24.8064 738.92 24.2528 724.84 22.8821C714.227 21.8541 704.147 21.1424 693.56 20.9842C670.653 20.6547 668 32.7802 645 37.1428C634.92 39.0538 625.973 49.7691 600.307 50.6917L576.493 51.5484C573.227 51.667 571.56 52.9982 569.147 54.7379C561.76 60.0889 553.253 63.3839 544.533 66.2571C533.987 67.3247 524.013 68.2868 513.707 70.5142C499.64 73.5588 509.387 74.7977 500.12 77.0647C489.533 79.6611 479.08 79.1075 468.053 80.1224C440.307 82.6661 413.307 88.3071 386.427 95.0157C380.613 96.4786 376.28 99.1278 371.013 101.368C360.373 105.889 348.933 107.892 337.453 109.593C332.933 110.252 328.253 109.962 323.8 109.553L305.987 107.906C297.973 107.154 290.28 106.469 282.347 104.927C272.68 100.129 262.653 98.0998 251.867 97.3485C235.88 96.2282 220.467 93.7636 205.227 88.9925L174.147 87.0023L147.653 85.3416C140.547 84.8935 134.187 83.1669 127.187 81.8094L91.2133 74.7977C70.6267 70.791 80.5467 70.9887 70.1067 68.0891L64.5333 66.5339C57.0267 64.4383 49.88 62.1318 42.5467 59.5617C42.24 59.4563 41.96 59.43 41.64 59.3377L12.24 51.5352L11.3867 51.2057C9.02667 50.2831 4.36 48.8333 2.44 47.2781L1.85333 46.8036C-0.226667 45.1166 1.33333 43.1264 0 42.6256V1640H1920" fill="#FCF5E4"/>
</svg>
