<svg width="64" height="64" viewBox="0 0 64 64" fill="none" xmlns="http://www.w3.org/2000/svg">
<path d="M52.3135 41.4119H54.6254C58.4293 41.4119 61.5239 38.3166 61.5239 34.512C61.5239 32.6704 60.8066 30.938 59.5039 29.6336C58.2013 28.331 56.4688 27.6138 54.6255 27.6138H36.854C36.1624 27.6138 35.6015 28.1745 35.6015 28.8663C35.6015 29.558 36.1623 30.1188 36.854 30.1188H54.6254C55.7995 30.1188 56.903 30.5756 57.732 31.4045C58.5619 32.2355 59.019 33.3391 59.019 34.5123C59.019 36.9356 57.048 38.9073 54.6254 38.9073H52.1979C52.0481 38.2885 51.8108 37.683 51.479 37.1086C50.2694 35.0134 48.1026 33.7624 45.6833 33.7624C43.2639 33.7624 41.0973 35.0133 39.8876 37.1085C39.556 37.683 39.3185 38.2885 39.1688 38.9073H6.89838C5.05588 38.9073 3.32338 39.6251 2.02 40.9285C0.717375 42.2309 0 43.9634 0 45.8068C0 49.6113 3.0945 52.7065 6.89838 52.7065H16.8285C16.94 53.5711 17.2238 54.4215 17.6813 55.2139L22.3923 63.3736C22.5928 63.6845 22.9298 63.9989 23.477 63.9999H54.6254C58.4293 63.9999 61.5239 60.9048 61.5239 57.1001C61.5239 55.2585 60.8066 53.5261 59.5033 52.2213C58.1994 50.9189 56.467 50.2016 54.6255 50.2016H47.7834L51.4791 43.8005C51.9155 43.0445 52.192 42.2355 52.3135 41.4119ZM19.8506 49.774C20.6075 48.463 21.9631 47.6803 23.477 47.6803C24.9909 47.6803 26.3465 48.4629 27.1034 49.774C27.8604 51.0849 27.8604 52.6504 27.1034 53.9614L23.477 60.2425L19.8506 53.9614C19.0936 52.6503 19.0936 51.0849 19.8506 49.774ZM57.732 53.9923C58.5619 54.8233 59.019 55.9269 59.019 57.1C59.019 59.5234 57.048 61.4949 54.6254 61.4949H25.6463L29.2726 55.2138C29.73 54.4215 30.0139 53.571 30.1254 52.7064H54.6255C55.7986 52.7065 56.9023 53.1635 57.732 53.9923ZM29.9636 50.2015C29.8125 49.6239 29.583 49.0593 29.2726 48.5215C28.063 46.4263 25.8964 45.1754 23.477 45.1754C21.0576 45.1754 18.891 46.4263 17.6814 48.5215C17.3709 49.0593 17.1414 49.624 16.9904 50.2015H6.89838C4.47575 50.2015 2.50488 48.23 2.50488 45.8066C2.50488 44.6325 2.96175 43.529 3.79125 42.6995C4.62163 41.8691 5.72513 41.4119 6.89838 41.4119H39.0533C39.1748 42.2355 39.4513 43.0445 39.8878 43.8005L43.5834 50.2015H29.9636ZM49.3099 42.5481L45.6834 48.8291L42.057 42.548C41.3001 41.2371 41.3001 39.6718 42.057 38.3609C42.8139 37.0498 44.1696 36.2671 45.6835 36.2671C47.1974 36.2671 48.553 37.0498 49.3099 38.3609C50.0668 39.6718 50.0668 41.237 49.3099 42.5481Z" fill="white"/>
<path d="M62.7399 3.34612C61.5302 1.25087 59.3636 0 56.9442 0C54.5249 0 52.3582 1.25087 51.1486 3.34612C49.9389 5.44125 49.9389 7.94312 51.1486 10.0384L54.7749 16.3194H19.8977C19.7466 15.742 19.5172 15.1774 19.2069 14.6399C17.9972 12.5446 15.8306 11.2937 13.4112 11.2937C10.9919 11.2937 8.82525 12.5446 7.61562 14.6397C7.30525 15.1774 7.07575 15.742 6.92462 16.3194H6.89837C5.05587 16.3194 3.32337 17.0373 2.02 18.3407C0.717375 19.6435 0 21.376 0 23.219C0 27.0235 3.0945 30.1189 6.89837 30.1189H25.4416C26.1332 30.1189 26.6941 29.5581 26.6941 28.8664C26.6941 28.1746 26.1334 27.6139 25.4416 27.6139H15.58L19.2069 21.332C19.6644 20.5395 19.9482 19.6889 20.0596 18.8241H56.9424C57.2979 18.8223 57.7846 18.64 58.0289 18.198L62.7399 10.0382C63.9496 7.94312 63.9496 5.44125 62.7399 3.34612ZM6.89837 27.614C4.47575 27.614 2.50487 25.6425 2.50487 23.219C2.50487 22.0449 2.96175 20.9414 3.79125 20.1119C4.5895 19.3135 5.6405 18.8612 6.76312 18.8275C6.87487 19.6911 7.15862 20.5406 7.6155 21.332L11.2424 27.6139H6.89837V27.614ZM17.0376 20.0796L13.4112 26.3608L9.78475 20.0796C9.02787 18.7686 9.02787 17.2031 9.78487 15.8923C10.5417 14.5813 11.8974 13.7985 13.4112 13.7985C14.9251 13.7985 16.2806 14.5811 17.0376 15.8923C17.7945 17.2033 17.7945 18.7686 17.0376 20.0796ZM60.5706 8.786L56.9442 15.0671L53.3179 8.786C52.5609 7.475 52.5609 5.9095 53.3179 4.59863C54.0747 3.28763 55.4304 2.50487 56.9442 2.50487C58.4581 2.50487 59.8137 3.2875 60.5706 4.59863C61.3276 5.9095 61.3276 7.47488 60.5706 8.786Z" fill="white"/>
<path d="M56.9441 7.43811C57.6359 7.43811 58.1966 6.87734 58.1966 6.18561C58.1966 5.49387 57.6359 4.93311 56.9441 4.93311C56.2524 4.93311 55.6917 5.49387 55.6917 6.18561C55.6917 6.87734 56.2524 7.43811 56.9441 7.43811Z" fill="white"/>
<path d="M13.4112 18.8243C14.1029 18.8243 14.6637 18.2636 14.6637 17.5718C14.6637 16.8801 14.1029 16.3193 13.4112 16.3193C12.7195 16.3193 12.1587 16.8801 12.1587 17.5718C12.1587 18.2636 12.7195 18.8243 13.4112 18.8243Z" fill="white"/>
<path d="M31.1373 30.1178C31.829 30.1178 32.3898 29.557 32.3898 28.8653C32.3898 28.1736 31.829 27.6128 31.1373 27.6128C30.4455 27.6128 29.8848 28.1736 29.8848 28.8653C29.8848 29.557 30.4455 30.1178 31.1373 30.1178Z" fill="white"/>
<path d="M45.6832 41.4127C46.3749 41.4127 46.9357 40.852 46.9357 40.1602C46.9357 39.4685 46.3749 38.9077 45.6832 38.9077C44.9914 38.9077 44.4307 39.4685 44.4307 40.1602C44.4307 40.852 44.9914 41.4127 45.6832 41.4127Z" fill="white"/>
<path d="M23.4774 52.7067C24.1691 52.7067 24.7299 52.1459 24.7299 51.4542C24.7299 50.7624 24.1691 50.2017 23.4774 50.2017C22.7856 50.2017 22.2249 50.7624 22.2249 51.4542C22.2249 52.1459 22.7856 52.7067 23.4774 52.7067Z" fill="white"/>
</svg>
