<svg width="64" height="42" viewBox="0 0 64 42" fill="none" xmlns="http://www.w3.org/2000/svg">
<path d="M60.87 15.962L56.3112 14.9857C55.8049 14.8769 55.3066 15.1999 55.1982 15.7061C55.0899 16.2124 55.4124 16.7107 55.9188 16.8191L60.478 17.7955C61.3225 17.9759 61.9611 18.6677 62.0971 19.501H59.1255C57.9917 19.501 57.0694 20.4234 57.0694 21.5572V24.2392C57.0694 25.373 57.9917 26.2954 59.1255 26.2954H62.125V26.8292H57.4085C55.7547 24.6599 53.1452 23.2564 50.2131 23.2564C46.0894 23.2564 42.6037 26.0316 41.5197 29.8119H27.0051C25.921 26.0316 22.4359 23.2564 18.3125 23.2564C15.3802 23.2564 12.7706 24.6599 11.1169 26.8292H6.8525V18.195L9.49825 7.07875C9.79513 5.83412 10.8954 4.965 12.1739 4.965H39.4901C40.1544 4.965 40.7821 5.28612 41.17 5.825L47.6486 14.8C47.7845 14.9882 47.9854 15.1194 48.2125 15.168L52.2637 16.0355C52.77 16.1439 53.2684 15.8214 53.3768 15.315C53.4851 14.8087 53.1626 14.3104 52.6562 14.202L48.9577 13.4101L42.6909 4.72862C41.9524 3.70262 40.7558 3.09 39.49 3.09H38.8754C38.9246 2.89512 38.9536 2.69237 38.9536 2.4825C38.9536 1.11362 37.84 0 36.4711 0H13.7194C12.3505 0 11.2369 1.11362 11.2369 2.4825C11.2369 2.71987 11.2724 2.94875 11.3349 3.16637C9.55587 3.49062 8.10713 4.82975 7.67425 6.64425L6.50187 11.5704C6.09637 10.9231 5.37888 10.4905 4.56038 10.4905H2.29175C1.02812 10.4904 0 11.5185 0 12.7821V25.5369C0 26.8005 1.02812 27.8285 2.29175 27.8285H4.56025C4.70287 27.8285 4.842 27.8136 4.9775 27.7886V30.875C4.9775 32.869 6.471 34.5425 8.45175 34.7677L9.64925 34.9036C9.891 35.7092 10.2449 36.4805 10.706 37.1955C10.9868 37.6307 11.567 37.7559 12.002 37.4752C12.4371 37.1946 12.5624 36.6144 12.2817 36.1792C11.5365 35.0236 11.1426 33.6826 11.1426 32.3011C11.1426 28.3476 14.359 25.1311 18.3126 25.1311C22.2655 25.1311 25.4814 28.3475 25.4814 32.3011C25.4814 36.254 22.2655 39.4699 18.3126 39.4699C17.0261 39.4699 15.7645 39.1252 14.6643 38.4734C14.219 38.2094 13.6438 38.3564 13.3799 38.802C13.1159 39.2474 13.263 39.8225 13.7085 40.0864C15.0979 40.9096 16.69 41.3449 18.3126 41.3449C22.2144 41.3449 25.5466 38.861 26.8121 35.3916H41.7132C42.9789 38.8611 46.3114 41.345 50.2132 41.345C54.3887 41.345 57.9109 38.5 58.9471 34.6471L59.5705 34.5531C62.1371 34.1646 64 31.999 64 29.4037V20.4385V19.8324C64 17.9772 62.6835 16.3495 60.87 15.962ZM13.7194 1.87487H36.4711C36.8061 1.87487 37.0786 2.14737 37.0786 2.48237C37.0786 2.81737 36.806 3.08987 36.4711 3.08987H13.7194C13.3844 3.08987 13.1119 2.81737 13.1119 2.48237C13.1119 2.14737 13.3844 1.87487 13.7194 1.87487ZM4.977 25.5369C4.977 25.7666 4.79 25.9535 4.56025 25.9535H2.29175C2.062 25.9535 1.875 25.7665 1.875 25.5369V12.7821C1.875 12.5524 2.062 12.3654 2.29175 12.3654H4.56025C4.79 12.3654 4.977 12.5524 4.977 12.7821V25.5369ZM8.66337 32.9047C7.631 32.7874 6.8525 31.9147 6.8525 30.875V28.7041H10.0155C9.53537 29.8072 9.2675 31.0232 9.2675 32.3011C9.2675 32.5271 9.27625 32.7522 9.29288 32.9761L8.66337 32.9047ZM59.1255 24.4204C59.0256 24.4204 58.9444 24.3391 58.9444 24.2392V21.5572C58.9444 21.4574 59.0256 21.376 59.1255 21.376H62.125V24.4202H59.1255V24.4204ZM27.2722 33.5166C27.326 33.1187 27.3563 32.7135 27.3563 32.3011C27.3563 32.0944 27.3468 31.8899 27.333 31.6866H41.1919C41.1782 31.8897 41.1688 32.094 41.1688 32.3006C41.1688 32.7131 41.199 33.1186 41.2529 33.5166H27.2722ZM50.2131 39.4701C46.2599 39.4701 43.0438 36.254 43.0438 32.3007C43.0438 28.3475 46.2599 25.1314 50.2131 25.1314C54.1664 25.1314 57.3825 28.3475 57.3825 32.3007C57.3825 36.254 54.1664 39.4701 50.2131 39.4701ZM59.2901 32.6992L59.2472 32.7057C59.2533 32.5714 59.2575 32.4365 59.2575 32.3007C59.2575 31.0231 58.9897 29.8072 58.5096 28.7042H62.125V29.4039C62.125 31.0646 60.9326 32.4506 59.2901 32.6992Z" fill="white"/>
<path d="M9.86493 14.1778C10.2373 14.8113 10.8982 15.1896 11.6327 15.1896H15.2253C16.4178 15.1896 17.3881 14.2193 17.3881 13.0268V8.7023C17.3881 7.50968 16.4178 6.53955 15.2253 6.53955H15.1339C13.7888 6.53955 12.5482 7.26955 11.8961 8.44455L9.84068 12.1414C9.48356 12.7832 9.49256 13.5444 9.86493 14.1778ZM11.4793 13.0529L13.5352 9.35505C13.5353 9.3548 13.5354 9.35468 13.5354 9.35443C13.8572 8.77468 14.4697 8.41455 15.1339 8.41455H15.2253C15.3839 8.41455 15.5131 8.54368 15.5131 8.7023V13.0268C15.5131 13.1854 15.3839 13.3146 15.2253 13.3146H11.6327C11.5662 13.3146 11.5153 13.2853 11.4814 13.2277C11.4476 13.17 11.4467 13.1114 11.4793 13.0529Z" fill="white"/>
<path d="M43.8045 14.0725C44.1569 13.3835 44.0944 12.5658 43.6415 11.9384L40.3595 7.39168C39.9755 6.85805 39.3535 6.53955 38.6958 6.53955H34.0004C32.8079 6.53955 31.8376 7.5098 31.8376 8.7023V13.0268C31.8376 14.2193 32.8079 15.1896 34.0004 15.1896H41.9786C42.7525 15.1896 43.4521 14.7615 43.8045 14.0725ZM33.7126 13.0268V8.7023C33.7126 8.54355 33.8416 8.41455 34.0004 8.41455H38.6958C38.7528 8.41455 38.8044 8.44093 38.8384 8.48805L42.1213 13.0358C42.163 13.0937 42.1678 13.1553 42.1351 13.2188C42.1026 13.2823 42.05 13.3146 41.9786 13.3146H34.0004C33.8416 13.3146 33.7126 13.1856 33.7126 13.0268Z" fill="white"/>
<path d="M30.73 13.0268V8.7023C30.73 7.50968 29.7598 6.53955 28.5673 6.53955H20.3183C19.1258 6.53955 18.1555 7.5098 18.1555 8.7023V13.0268C18.1555 14.2193 19.1258 15.1896 20.3183 15.1896H28.5673C29.7598 15.1896 30.73 14.2194 30.73 13.0268ZM20.0305 13.0268V8.7023C20.0305 8.54355 20.1596 8.41455 20.3183 8.41455H28.5673C28.726 8.41455 28.855 8.54368 28.855 8.7023V13.0268C28.855 13.1854 28.7259 13.3146 28.5673 13.3146H20.3183C20.1596 13.3146 20.0305 13.1856 20.0305 13.0268Z" fill="white"/>
<path d="M27.8601 27.6128H40.6649C41.1827 27.6128 41.6024 27.193 41.6024 26.6753C41.6024 26.1575 41.1827 25.7378 40.6649 25.7378H27.8601C27.3424 25.7378 26.9226 26.1575 26.9226 26.6753C26.9226 27.193 27.3424 27.6128 27.8601 27.6128Z" fill="white"/>
<path d="M35.8673 18.0493C36.3851 18.0493 36.8048 17.6296 36.8048 17.1118C36.8048 16.5941 36.3851 16.1743 35.8673 16.1743H32.7754C32.2575 16.1743 31.8379 16.5941 31.8379 17.1118C31.8379 17.6296 32.2575 18.0493 32.7754 18.0493H35.8673Z" fill="white"/>
<path d="M19.3486 16.1743C18.8309 16.1743 18.4111 16.5941 18.4111 17.1118C18.4111 17.6296 18.8309 18.0493 19.3486 18.0493H22.4406C22.9584 18.0493 23.3781 17.6296 23.3781 17.1118C23.3781 16.5941 22.9584 16.1743 22.4406 16.1743H19.3486Z" fill="white"/>
<path d="M50.2131 27.5386C47.5871 27.5386 45.4507 29.6749 45.4507 32.3008C45.4507 34.9267 47.5871 37.0631 50.2131 37.0631C52.8389 37.0631 54.9753 34.9267 54.9753 32.3008C54.9753 29.6749 52.8389 27.5386 50.2131 27.5386ZM50.2131 35.1882C48.6211 35.1882 47.3257 33.893 47.3257 32.3009C47.3257 30.7089 48.6209 29.4137 50.2131 29.4137C51.8052 29.4137 53.1003 30.7089 53.1003 32.3009C53.1003 33.893 51.8051 35.1882 50.2131 35.1882Z" fill="white"/>
<path d="M18.3125 37.0631C20.9384 37.0631 23.0748 34.9267 23.0748 32.3008C23.0748 29.6749 20.9384 27.5386 18.3125 27.5386C15.6867 27.5386 13.5503 29.6749 13.5503 32.3008C13.5503 34.9267 15.6865 37.0631 18.3125 37.0631ZM18.3125 29.4134C19.9045 29.4134 21.1998 30.7087 21.1998 32.3007C21.1998 33.8927 19.9045 35.1879 18.3125 35.1879C16.7205 35.1879 15.4253 33.8927 15.4253 32.3007C15.4253 30.7087 16.7204 29.4134 18.3125 29.4134Z" fill="white"/>
</svg>
