<svg width="64" height="64" viewBox="0 0 64 64" fill="none" xmlns="http://www.w3.org/2000/svg">
<g clip-path="url(#clip0_958_1724)">
<path d="M62.2891 60.2175L54.0474 51.9319C53.6339 51.5168 53.0606 51.2785 52.4747 51.2785H41.835C43.4571 49.2146 45.0484 46.966 46.4649 44.7688C46.7457 44.3332 46.6202 43.7532 46.1851 43.4729C45.7496 43.1921 45.1695 43.3176 44.8892 43.7527C42.4005 47.614 39.6549 51.2063 37.1583 53.8674C34.4088 56.7981 32.6436 57.8381 31.9678 57.8381C31.7393 57.8381 30.4342 57.6662 27.1627 54.2727C24.8609 51.885 22.2716 48.5954 19.8717 45.009C14.1534 36.4641 10.7398 28.2751 10.7398 23.1037C10.7398 17.2195 13.2159 11.5471 17.5328 7.54076C17.9122 7.18871 17.9346 6.59545 17.5821 6.21605C17.2301 5.83617 16.6368 5.8142 16.2574 6.16625C13.9503 8.30785 12.1329 10.845 10.8565 13.7073C9.53474 16.6716 8.86482 19.8328 8.86482 23.1037C8.86482 26.1013 9.83015 29.8401 11.7335 34.2161C13.3634 37.9621 15.6387 42.0549 18.3136 46.0515C19.3389 47.5847 20.6661 49.4382 22.1173 51.2785H11.461C10.8751 51.2785 10.3018 51.5168 9.88826 51.9319L1.64656 60.2175C1.01277 60.8547 0.825756 61.8035 1.17097 62.6335C1.51619 63.4636 2.32038 64.0002 3.2198 64.0002H60.7164C61.6158 64.0002 62.4195 63.4636 62.7647 62.6335C63.1099 61.8035 62.9234 60.8547 62.2891 60.2175ZM52.4747 53.1535C52.5655 53.1535 52.6544 53.1902 52.7179 53.2546L54.5665 55.1125H38.5694C39.1427 54.4997 39.7242 53.8435 40.3077 53.1535H52.4747ZM47.8297 62.1252L42.7188 56.9875H46.441L51.5518 62.1252H47.8297ZM11.2178 53.2546C11.2818 53.1902 11.3707 53.1535 11.461 53.1535H23.6456C24.2183 53.8308 24.7999 54.4895 25.3809 55.1125H9.3697L11.2178 53.2546ZM2.90242 61.9138C2.8697 61.8347 2.83552 61.6809 2.97615 61.5398L7.50886 56.9831C7.53767 56.9861 7.56697 56.9875 7.59626 56.9875H27.0928C27.1436 56.9875 27.1929 56.9827 27.2413 56.9748C29.0216 58.616 30.6949 59.7131 31.9678 59.7131C33.1959 59.7131 34.8521 58.6672 36.6861 56.9875H36.6876H40.0743L45.1846 62.1252H3.2198C3.02009 62.1252 2.93513 61.9929 2.90242 61.9138ZM61.0333 61.9138C61.0006 61.9929 60.9156 62.1252 60.7164 62.1252H54.1969L49.086 56.9875H56.4312L60.9596 61.5398C61.1007 61.6809 61.066 61.8347 61.0333 61.9138Z" fill="white"/>
<path d="M20.8525 5.01514C24.1884 2.96094 28.0322 1.875 31.9677 1.875C36.7964 1.875 41.3462 3.45508 45.1259 6.44434C45.2978 6.58057 45.5029 6.64648 45.7065 6.64648C45.9834 6.64648 46.2578 6.52441 46.4428 6.29053C46.7636 5.88428 46.6953 5.29492 46.289 4.97363C42.1753 1.71973 37.2231 0 31.9677 0C27.6845 0 23.5009 1.18213 19.8696 3.41895C19.4287 3.69043 19.2915 4.26758 19.563 4.7085C19.8344 5.14941 20.4121 5.28662 20.8525 5.01514Z" fill="white"/>
<path d="M53.1962 23.1037C53.1962 27.2195 51.0571 33.2204 47.1728 40.0012C46.915 40.4504 47.0707 41.0232 47.52 41.2805C47.6669 41.3645 47.8271 41.4045 47.9853 41.4045C48.3105 41.4045 48.6264 41.2356 48.7997 40.9333C51.142 36.8445 55.0712 29.091 55.0712 23.1037C55.0712 17.6013 53.103 12.2702 49.5297 8.09299C49.1933 7.69993 48.6015 7.65354 48.2075 7.99045C47.8144 8.32688 47.768 8.91868 48.1049 9.31223C51.3881 13.1496 53.1962 18.0476 53.1962 23.1037Z" fill="white"/>
<path d="M31.9678 5.72168C22.3838 5.72168 14.5864 13.519 14.5864 23.1035C14.5864 32.6875 22.3838 40.4849 31.9678 40.4849C41.5522 40.4849 49.3496 32.6875 49.3496 23.1035C49.3496 13.519 41.5522 5.72168 31.9678 5.72168ZM31.9678 38.6099C23.4175 38.6099 16.4614 31.6538 16.4614 23.103C16.4614 14.5527 23.4175 7.59668 31.9678 7.59668C40.5181 7.59668 47.4746 14.5532 47.4746 23.1035C47.4746 31.6538 40.5181 38.6099 31.9678 38.6099Z" fill="white"/>
<path d="M36.8774 19.9858C37.3901 19.1289 37.6855 18.1279 37.6855 17.0591C37.6855 13.9058 35.1206 11.3408 31.9678 11.3408C28.8149 11.3408 26.25 13.9062 26.25 17.0591C26.25 18.1279 26.5454 19.1289 27.0586 19.9858C25.291 20.6685 23.6685 21.7207 22.3193 23.0698C21.9136 23.4751 21.6904 24.0146 21.6904 24.5884C21.6904 25.1621 21.9136 25.7012 22.3193 26.1069L30.4492 34.2368C30.855 34.6426 31.394 34.8657 31.9678 34.8657C32.5415 34.8657 33.0806 34.6426 33.4863 34.2368L41.6162 26.1069C42.022 25.7012 42.2451 25.1621 42.2451 24.5884C42.2451 24.0146 42.022 23.4751 41.6162 23.0698C40.2676 21.7207 38.6445 20.6685 36.8774 19.9858ZM31.9678 13.2158C34.0869 13.2158 35.8105 14.9399 35.8105 17.0586C35.8105 19.1777 34.0869 20.9019 31.9678 20.9019C29.8486 20.9019 28.125 19.1777 28.125 17.0586C28.125 14.9399 29.8486 13.2158 31.9678 13.2158ZM33.3057 26.8208L31.9678 28.1587L30.6299 26.8208L31.2368 22.728C31.4766 22.7588 31.7202 22.7769 31.9678 22.7769C32.2158 22.7769 32.4595 22.7588 32.6992 22.728L33.3057 26.8208ZM40.2905 24.7812L32.1606 32.9111C32.0947 32.9771 32.0195 32.9907 31.9678 32.9907C31.9165 32.9907 31.8408 32.9771 31.7749 32.9106L23.645 24.7808C23.5796 24.7148 23.5654 24.6396 23.5654 24.5884C23.5654 24.5366 23.5791 24.4614 23.6455 24.3955C24.9722 23.0684 26.6055 22.0737 28.3804 21.5068C28.7012 21.7661 29.0508 21.9912 29.4233 22.1768L28.7642 26.623C28.6846 27.1592 28.8657 27.708 29.249 28.0913L30.752 29.5947C31.0874 29.9297 31.5278 30.0972 31.9678 30.0972C32.4082 30.0972 32.8486 29.9297 33.1841 29.5947L34.687 28.0913C35.0703 27.708 35.2515 27.1592 35.1719 26.6235L34.5127 22.1768C34.8853 21.9912 35.2349 21.7661 35.5557 21.5068C37.3306 22.0737 38.9639 23.0684 40.2905 24.3955C40.3564 24.4614 40.3706 24.5366 40.3706 24.5879C40.3706 24.6396 40.3564 24.7153 40.2905 24.7812Z" fill="white"/>
</g>
<defs>
<clipPath id="clip0_958_1724">
<rect width="64" height="64" fill="white"/>
</clipPath>
</defs>
</svg>
