<svg width="64" height="51" viewBox="0 0 64 51" fill="none" xmlns="http://www.w3.org/2000/svg">
<path d="M31.9999 25.3606C33.585 25.3606 34.8745 24.0711 34.8745 22.486C34.8745 20.9008 33.585 19.6113 31.9999 19.6113C30.4147 19.6113 29.1252 20.9008 29.1252 22.486C29.1252 24.0711 30.4147 25.3606 31.9999 25.3606ZM31.9999 21.4863C32.551 21.4863 32.9995 21.9347 32.9995 22.486C32.9995 23.0372 32.551 23.4856 31.9999 23.4856C31.4487 23.4856 31.0002 23.0372 31.0002 22.486C31.0002 21.9347 31.4487 21.4863 31.9999 21.4863Z" fill="white"/>
<path d="M63.9478 46.0934L58.0668 29.1528C57.9275 28.7507 57.6397 28.4272 57.257 28.2418C57.019 28.1264 56.7618 28.0731 56.5047 28.0828L55.6896 25.2272L58.7626 19.0182C60.3322 15.8467 59.1266 12.0376 56.0178 10.3464L55.6081 10.1235L53.325 8.01262C52.5757 7.32025 51.5332 7.03675 50.5356 7.25412C49.8861 7.39575 49.3086 7.7395 48.8763 8.21925C44.8225 3.04762 38.6192 0 32 0C30.3466 0 28.701 0.18875 27.1091 0.560875C26.6048 0.67875 26.2917 1.183 26.4096 1.68725C26.5273 2.19138 27.0323 2.50438 27.5358 2.38675C28.988 2.04725 30.49 1.87512 32 1.87512C38.3238 1.87512 44.2323 4.92337 47.909 10.0535L46.7322 12.804L46.23 11.8713C46.0982 11.627 45.9107 11.4314 45.6918 11.2906C42.4853 6.9685 37.3848 4.39375 32 4.39375C26.615 4.39375 21.5145 6.96863 18.3078 11.2908C18.089 11.4316 17.9015 11.6274 17.7696 11.8717L17.2677 12.8037L16.0918 10.0555C18.0231 7.358 20.6107 5.18762 23.6063 3.76275C24.0738 3.54037 24.2726 2.981 24.0502 2.51338C23.828 2.04575 23.2683 1.84712 22.801 2.0695C19.7986 3.49762 17.1695 5.6085 15.1235 8.21988C14.6905 7.73875 14.1133 7.3955 13.4646 7.254C12.4675 7.03662 11.4246 7.32012 10.675 8.01275L8.39197 10.1234L7.98222 10.3464C4.87347 12.0376 3.66797 15.8468 5.23747 19.0181L8.31047 25.2271L7.49534 28.0826C7.23834 28.073 6.98122 28.1262 6.74309 28.2416C6.36034 28.4271 6.07259 28.7506 5.93322 29.1526L0.0520911 46.0934C-0.117659 46.5825 0.141091 47.1166 0.630216 47.2864C1.11959 47.4566 1.65347 47.1973 1.82334 46.7083L7.61184 30.0341L15.4576 32.7579L9.66934 49.4321C9.49959 49.9212 9.75834 50.4554 10.2475 50.6253C10.3492 50.6606 10.4531 50.6774 10.555 50.6774C10.9431 50.6774 11.3062 50.4344 11.4406 50.0471L16.3038 36.0379C20.355 40.4016 25.9871 42.8749 32 42.8749C34.961 42.8749 37.8286 42.2824 40.523 41.1137C40.998 40.9077 41.2161 40.3556 41.01 39.8806C40.804 39.4056 40.2516 39.1876 39.7768 39.3936C37.3193 40.4595 34.7028 40.9999 32 40.9999C26.1751 40.9999 20.741 38.4571 17.0092 34.006L17.3216 33.1062C17.5636 32.409 17.2898 31.6571 16.7043 31.2635L17.2288 29.9431C20.307 35.3016 25.9686 38.4812 32.0001 38.4812C38.0341 38.4812 43.6945 35.2996 46.7713 29.9431L47.2958 31.2635C46.7103 31.6572 46.4366 32.4091 46.6786 33.1064L46.9902 34.0041C45.9416 35.2538 44.7435 36.3695 43.4196 37.3229C42.9995 37.6255 42.9041 38.2114 43.2067 38.6315C43.39 38.8859 43.677 39.0211 43.9682 39.0211C44.1581 39.0211 44.3496 38.9638 44.5153 38.8443C45.6666 38.0151 46.7305 37.0731 47.6956 36.0359L52.5595 50.047C52.6938 50.4344 53.0568 50.6773 53.4451 50.6773C53.547 50.6773 53.6508 50.6605 53.7526 50.6251C54.2417 50.4552 54.5005 49.9211 54.3307 49.432L48.5425 32.7578L56.3882 30.0341L62.1767 46.7083C62.3463 47.1974 62.8802 47.4564 63.3699 47.2864C63.8588 47.1166 64.1177 46.5825 63.9478 46.0934ZM46.8668 15.6945C47.288 15.6737 47.6526 15.4199 47.8181 15.0324L50.045 9.82738C50.2047 9.44463 50.5291 9.17437 50.9347 9.086C51.3401 8.9975 51.7477 9.10825 52.052 9.3895L54.4207 11.5795C54.5598 11.7083 54.6471 11.7313 55.1216 11.9934C57.334 13.2155 58.2028 15.9216 57.0818 18.1866L53.8481 24.7204C53.7447 24.9293 53.7228 25.1694 53.7868 25.3935L54.7111 28.6316L49.0487 30.5974L43.205 15.8854C42.818 14.91 43.2246 13.8022 44.1508 13.3085L44.713 13.0089L45.8545 15.1289C46.0575 15.4985 46.4453 15.7156 46.8668 15.6945ZM21.3907 19.4645C22.2861 19.1698 23.2215 18.9139 24.1906 18.6985C23.7536 19.6353 23.59 20.6893 23.7413 21.7315C24.181 24.7596 24.1597 24.7603 24.2663 25.214L19.3738 24.5425L21.3907 19.4645ZM26.5387 25.8719C26.2731 25.4391 26.1016 24.9648 26.0291 24.4621L25.5972 21.4645C25.4556 20.4785 25.7426 19.477 26.385 18.7166C26.6515 18.401 27.0366 18.1973 27.471 18.1399C28.7447 17.9862 30.3073 17.8929 31.3735 17.8756C33.1481 17.847 34.9313 17.9471 36.529 18.1399C36.9635 18.1973 37.3486 18.401 37.6152 18.7167C38.2573 19.477 38.5445 20.4784 38.4028 21.4643L37.9711 24.462C37.8985 24.9649 37.727 25.4393 37.4616 25.8715C36.7906 26.9626 35.61 27.6341 34.3088 27.6341H29.6912C28.4195 27.634 27.2263 26.9901 26.5387 25.8719ZM39.8095 18.6985C40.7786 18.9139 41.7138 19.1698 42.6092 19.4645L44.6262 24.5425L39.7338 25.214C39.7713 25.0545 39.8032 24.8932 39.8268 24.7295L40.2587 21.7314C40.4085 20.689 40.2463 19.6353 39.8095 18.6985ZM32 6.26875C36.4191 6.26875 40.6237 8.21687 43.4897 11.5362L43.269 11.654C41.4995 12.5971 40.7228 14.7136 41.4623 16.5774L41.7263 17.242C40.4062 16.8811 39.021 16.5936 37.5843 16.387C35.3968 16.0735 33.1172 15.948 30.8361 16.0134C29.2685 16.0586 27.731 16.1985 26.4153 16.3871C24.979 16.5938 23.5937 16.8813 22.2736 17.2421L22.5377 16.5772C23.2772 14.7137 22.5006 12.5972 20.7312 11.6542L20.5103 11.5365C23.3762 8.21675 27.581 6.26875 32 6.26875ZM6.91784 18.1866C5.79684 15.9217 6.66584 13.2156 8.87822 11.9935C9.35347 11.7309 9.44009 11.7083 9.57909 11.5795L11.9476 9.38975C12.2521 9.10837 12.6591 8.99737 13.0651 9.086C13.4707 9.1745 13.7951 9.44462 13.9581 9.83488L16.1817 15.0319C16.3473 15.4198 16.712 15.6736 17.1331 15.6944C17.5528 15.7155 17.9425 15.4984 18.1492 15.1216L19.2868 13.0086L19.8491 13.3084C20.7752 13.802 21.1818 14.9099 20.7948 15.885L14.9512 30.5974L9.28859 28.6316L10.213 25.3935C10.277 25.1694 10.2551 24.9293 10.1517 24.7204L6.91784 18.1866ZM18.1498 27.624L18.661 26.3371L25.2001 27.2346C25.5976 27.7775 26.0806 28.236 26.6261 28.5954L28.222 36.1304C23.7978 34.9995 20.0653 31.9139 18.1498 27.624ZM30.2168 36.501L28.7177 29.4229C29.0355 29.4783 29.3606 29.5091 29.6913 29.5091H34.3087C34.6395 29.5091 34.9645 29.4784 35.2823 29.4229L33.7832 36.501C33.1965 36.5697 32.6016 36.606 32.0001 36.606C31.3986 36.606 30.8036 36.5696 30.2168 36.501ZM35.7781 36.1304L37.374 28.5954C37.9193 28.236 38.4022 27.7775 38.7998 27.2346L45.339 26.3371L45.8501 27.624C43.9346 31.9139 40.2021 34.9995 35.7781 36.1304Z" fill="white"/>
</svg>
