<svg width="63" height="63" viewBox="0 0 63 63" fill="none" xmlns="http://www.w3.org/2000/svg">
<path d="M0.914047 27.5327H15.9469C17.8675 27.5327 19.7446 28.3149 21.0968 29.6787L31.0422 39.7088C31.6518 40.3237 31.6529 41.3251 31.0448 41.9412C30.7491 42.2406 30.366 42.3981 29.9778 42.4134C29.5705 42.428 29.1645 42.2914 28.8415 41.9949L21.178 34.9522C20.8064 34.6107 20.2281 34.635 19.8865 35.0068C19.5449 35.3785 19.5694 35.9567 19.9411 36.2983L27.6046 43.341C28.2628 43.9458 29.0901 44.2463 29.9158 44.2463C30.1214 44.2321 35.2706 44.2464 35.4749 44.2415C35.9798 44.2415 36.3889 43.8323 36.3889 43.3275C36.3889 42.8227 35.9798 42.4134 35.4749 42.4134H32.9381C33.6085 41.1294 33.4091 39.4994 32.3404 38.4217L22.3949 28.3916C20.7018 26.684 18.3516 25.7048 15.9468 25.7048H12.5115V13.7273L12.5228 13.7254C19.0246 12.6419 25.172 10.3485 30.7941 6.90892L31.1995 6.66091L31.6048 6.90892C37.227 10.3485 43.3743 12.6419 49.8761 13.7254L49.8874 13.7272V20.1422C49.8874 20.647 50.2966 21.0563 50.8015 21.0563C51.3064 21.0563 51.7155 20.647 51.7155 20.1422V12.953C51.7155 12.5062 51.3926 12.1248 50.9518 12.0513L50.1766 11.9222C43.9075 10.8775 37.98 8.6662 32.5588 5.34955L31.6765 4.80966C31.3837 4.6305 31.0152 4.6305 30.7224 4.80966L29.8401 5.34955C24.4191 8.66608 18.4915 10.8775 12.2223 11.9222L11.4472 12.0513C11.0063 12.1248 10.6834 12.5061 10.6834 12.953V25.7045H8.36779V10.3437C8.36779 10.2715 8.42227 10.2078 8.49247 10.196L11.8419 9.63765C13.4799 9.36405 15.1185 9.00062 16.7123 8.55774C17.1987 8.42258 17.4834 7.91864 17.3481 7.43224C17.213 6.94585 16.7093 6.66139 16.2226 6.79643C14.6907 7.22225 13.1153 7.57154 11.541 7.83454L8.18986 8.39309C7.23364 8.55469 6.5397 9.37502 6.5397 10.3437V25.7046H0.914047C0.409249 25.7046 0 26.1139 0 26.6187C0 27.1235 0.409249 27.5327 0.914047 27.5327Z" fill="white"/>
<path d="M61.4849 38.2822H45.2332C43.3126 38.2822 41.4356 37.5 40.0834 36.1363L30.1378 26.1061C29.5282 25.4914 29.527 24.4899 30.1353 23.8738C30.4304 23.5746 30.813 23.4172 31.2008 23.4015C31.6086 23.3865 32.015 23.5232 32.3385 23.82L40.002 30.8627C40.3739 31.2042 40.9521 31.1799 41.2936 30.8081C41.6352 30.4364 41.6108 29.8582 41.2391 29.5166L33.5756 22.4741C32.8744 21.8297 31.9815 21.5318 31.1031 21.5734H18.9685C17.5526 21.5734 16.4008 20.4215 16.4008 19.0057C16.4008 18.7945 16.5726 18.6226 16.7838 18.6226H33.4869C34.1544 18.6226 34.808 18.8536 35.3322 19.2765L47.9667 29.3377C48.7173 29.9355 49.6593 30.2647 50.6188 30.2647H61.485C61.9899 30.2647 62.399 29.8554 62.399 29.3506C62.399 28.8458 61.9899 28.4366 61.485 28.4366H55.8593V10.3441C55.8593 9.37542 55.1654 8.55509 54.2071 8.39313L50.858 7.83495C45.1171 6.87873 39.6878 4.85357 34.7211 1.81565L32.2316 0.292723C31.5949 -0.0975135 30.804 -0.0975135 30.1679 0.292358L27.6779 1.81589C25.314 3.26301 22.7961 4.49917 20.1945 5.49011C19.7227 5.66975 19.4859 6.19795 19.6657 6.6696C19.8454 7.14137 20.3734 7.37805 20.8451 7.19841C23.5522 6.16736 26.1721 4.88099 28.6322 3.37501L31.1227 1.85123C31.1694 1.82259 31.2296 1.82259 31.2771 1.8516L33.7672 3.37501C38.935 6.53603 44.5843 8.64321 50.5576 9.63806L53.9046 10.1959C53.9769 10.2081 54.0314 10.2718 54.0314 10.3439V28.4366H51.7158V24.4082C51.7158 23.9034 51.3067 23.4941 50.8017 23.4941C50.2968 23.4941 49.8877 23.9034 49.8877 24.4082V28.3213C49.6054 28.2321 49.339 28.0935 49.1056 27.9077L36.4758 17.8503C35.6323 17.1696 34.5709 16.7947 33.4871 16.7947H16.7838C15.5646 16.7947 14.5727 17.7866 14.5727 19.0058C14.5727 21.4297 16.5447 23.4016 18.9685 23.4016H28.242C27.5715 24.6857 27.7709 26.3156 28.8398 27.3933L38.7852 37.4235C40.4784 39.131 42.8286 40.1103 45.2332 40.1103H47.7751C47.4884 40.7638 47.1764 41.4064 46.837 42.0282C46.5911 42.4785 46.0954 43.2757 45.6001 44.0121C44.7932 43.0365 43.5739 42.4138 42.2119 42.4138H39.7403C39.2354 42.4138 38.8263 42.8231 38.8263 43.3279C38.8263 43.8327 39.2354 44.2419 39.7403 44.2419H42.2119C43.6278 44.2419 44.7796 45.3938 44.7796 46.8098C44.7796 46.948 44.7092 47.0391 44.6687 47.0795C44.6263 47.1216 44.5345 47.1924 44.3959 47.1924H27.6932C27.0258 47.1924 26.3723 46.9615 25.8483 46.5384L13.2137 36.4778C12.4633 35.8802 11.5215 35.5512 10.5615 35.5512H0.914047C0.409249 35.5512 0 35.9604 0 36.4652C0 36.97 0.409249 37.3792 0.914047 37.3792H7.42998C7.434 37.3957 7.50591 37.6959 7.51017 37.7124C9.46319 45.3217 14.1832 51.844 20.8005 56.0777L30.1962 62.0892C30.52 62.2964 30.8909 62.4 31.2619 62.4C31.6343 62.4 32.007 62.2955 32.3318 62.0867L41.6624 56.0847C47.493 52.334 51.9328 46.6662 54.1837 40.1104H61.485C61.9899 40.1104 62.399 39.7012 62.399 39.1964C62.399 38.6916 61.9898 38.2822 61.4849 38.2822ZM40.6731 54.547L31.3427 60.549C31.2934 60.5806 31.2302 60.5804 31.1813 60.5492L21.7856 54.5377C15.5946 50.5766 11.1699 44.4866 9.3134 37.379H10.5615C11.0072 37.379 11.445 37.5051 11.8236 37.735C12.3524 39.5192 13.0844 41.2583 13.973 42.8856C15.7933 46.2092 18.36 49.1703 21.3958 51.4491C21.5603 51.5726 21.7528 51.6322 21.9438 51.6322C22.2216 51.6322 22.496 51.506 22.6755 51.2668C22.9786 50.863 22.897 50.2901 22.4932 49.9871C19.6643 47.8636 17.2724 45.1043 15.5767 42.0081C15.1975 41.3144 14.8509 40.5994 14.538 39.8689L24.7047 47.9643C25.548 48.6453 26.6094 49.0203 27.6933 49.0203H41.1767C40.2965 49.7657 39.3575 50.4666 38.4319 51.0619L31.2567 55.6781L26.0093 52.3209C25.5839 52.0488 25.0188 52.1729 24.7467 52.5982C24.4746 53.0235 24.5988 53.5887 25.024 53.8608L30.7655 57.5341C30.9156 57.6301 31.0868 57.6781 31.2581 57.6781C31.43 57.6781 31.6021 57.6298 31.7526 57.5329L39.4208 52.5996C40.9383 51.6235 42.4918 50.3852 43.7951 49.1126C43.825 49.0834 43.8514 49.0524 43.8764 49.0204H44.3961C44.9855 49.0204 45.5404 48.7913 45.96 48.3738C46.3779 47.956 46.608 47.4005 46.608 46.8096C46.608 46.4973 46.5747 46.1926 46.5124 45.8985C47.207 44.9462 48.0719 43.5816 48.4418 42.904C48.9329 42.0043 49.3758 41.0661 49.7618 40.1103H52.2435C50.066 46.0269 45.9825 51.1317 40.6731 54.547Z" fill="white"/>
</svg>
