<svg width="14" height="16" viewBox="0 0 14 16" fill="none" xmlns="http://www.w3.org/2000/svg">
<path d="M6.62797 9.33333C3.22597 9.33333 0.377972 11.8813 0.00397197 15.26C-0.0166947 15.4487 0.043972 15.6367 0.169972 15.778C0.296639 15.9193 0.477305 16 0.666639 16H2.62731C2.62731 13.794 4.42131 12 6.62731 12C8.83331 12 10.6273 13.794 10.6273 16H12.588C12.7773 16 12.958 15.9193 13.0846 15.778C13.2106 15.6367 13.2713 15.4487 13.2506 15.26C12.8766 11.8813 10.0286 9.33333 6.62664 9.33333H6.62797ZM6.62797 13.3333C5.15731 13.3333 3.96131 14.5293 3.96131 16H9.29464C9.29464 14.5293 8.09864 13.3333 6.62797 13.3333ZM3.84597 3.33333H2.45397C2.49331 3.174 2.52064 3.07 2.53197 3.03333C3.10131 1.21933 4.76331 0 6.66664 0C8.56997 0 10.2313 1.21933 10.8013 3.03333C10.852 3.19467 11.494 5.848 12.1 8.37733C12.2666 9.07267 11.5053 9.61867 10.902 9.23533C10.6673 9.08667 10.4246 8.94933 10.174 8.826C9.83597 7.47267 9.44664 5.92867 9.40531 5.75533C8.85597 6.69867 7.83397 7.334 6.66664 7.334C5.09064 7.334 3.78064 6.17667 3.53997 4.668C3.72664 4.668 3.97464 4.668 3.99997 4.668C4.82864 4.668 5.84731 4.43733 6.56797 3.988C7.18797 3.60133 7.69331 3.082 8.05397 2.47067C8.26597 2.112 8.07664 1.65333 7.68531 1.512C7.68131 1.51067 7.67664 1.50867 7.67264 1.50733C7.38131 1.40333 7.05864 1.53467 6.90064 1.80067C6.64731 2.22533 6.29464 2.58733 5.86264 2.85667C5.32264 3.194 4.67931 3.33467 3.84597 3.33467V3.33333ZM2.27797 9.28867C1.74331 9.634 1.06397 9.15667 1.21064 8.538C1.56664 7.038 1.95731 5.396 2.14997 4.59067C2.30131 6.20867 3.30864 7.57667 4.71531 8.23867C3.83864 8.454 3.01664 8.81133 2.27797 9.28867Z" fill="white"/>
</svg>
