<svg width="16" height="16" viewBox="0 0 16 16" fill="none" xmlns="http://www.w3.org/2000/svg">
<g clip-path="url(#clip0_958_2076)">
<path d="M5.90066 11.8C7.07222 12.9716 8.97172 12.9716 10.1433 11.8L10.1433 11.8L12.2847 9.65866C12.6819 9.27497 12.6929 8.64191 12.3093 8.24466C11.9256 7.84741 11.2925 7.83641 10.8953 8.22009C10.8869 8.22812 10.8787 8.23634 10.8707 8.24466L9.01535 10.0993L9 1C9 0.447719 8.55229 0 8 0C7.44772 0 7 0.447719 7 1L7.014 10.0847L5.17335 8.244C4.7761 7.86031 4.14304 7.87131 3.75935 8.26856C3.38507 8.65609 3.38507 9.27047 3.75935 9.658L5.90066 11.8Z" fill="white"/>
<path d="M15 9.66663C14.4477 9.66663 14 10.1143 14 10.6666V13.7273C13.9996 13.8777 13.8778 13.9996 13.7273 13.9999H2.27266C2.12222 13.9996 2.00034 13.8777 2 13.7273V10.6666C2 10.1143 1.55228 9.66663 1 9.66663C0.447719 9.66663 0 10.1143 0 10.6666V13.7273C0.00146875 14.9818 1.01812 15.9985 2.27266 16H13.7273C14.9819 15.9985 15.9985 14.9818 16 13.7273V10.6667C16 10.1143 15.5523 9.66663 15 9.66663Z" fill="white"/>
</g>
<defs>
<clipPath id="clip0_958_2076">
<rect width="16" height="16" fill="white"/>
</clipPath>
</defs>
</svg>
