<svg width="30" height="30" viewBox="0 0 30 30" fill="none" xmlns="http://www.w3.org/2000/svg">
<path d="M27.1613 10.5675C26.8713 10.7538 26.7863 11.14 26.9738 11.4313C28.0225 13.065 28.5988 14.9375 28.705 16.875H22.4675C22.4325 16.0112 22.3463 15.135 22.17 14.2525C22.1012 13.9138 21.7663 13.6912 21.435 13.7625C21.0963 13.83 20.8775 14.1587 20.9437 14.4975C21.1037 15.2975 21.1825 16.0925 21.2162 16.875H13.7775C13.9275 13.4575 15.2487 10.4213 16.3812 8.43375C16.5525 8.13375 16.4475 7.7525 16.1462 7.58125C15.845 7.41 15.4662 7.515 15.2937 7.815C14.0862 9.935 12.6762 13.1875 12.5262 16.875H6.2775C6.56 11.8675 10.19 7.55875 15.13 6.5C15.4688 6.4275 15.6825 6.095 15.6112 5.7575C15.5375 5.41875 15.2038 5.20625 14.8688 5.2775C9.15 6.5025 4.99875 11.6425 4.99875 17.5C4.99875 24.3925 10.6062 30 17.4987 30C24.3912 30 29.9988 24.3925 29.9988 17.5C29.9988 15.1 29.3162 12.7675 28.025 10.755C27.8375 10.4637 27.45 10.38 27.1613 10.5662V10.5675ZM21.2238 18.125C21.0163 22.8213 18.56 26.8138 17.4987 28.3237C16.4387 26.8138 13.9825 22.8213 13.7738 18.125H21.2238ZM6.28125 18.125H12.5238C12.7125 22.8525 14.965 26.8263 16.2125 28.67C10.8188 28.0525 6.585 23.6063 6.28125 18.125ZM18.7863 28.67C20.0325 26.825 22.285 22.8525 22.475 18.125H28.7175C28.4138 23.6063 24.18 28.0525 18.7863 28.67ZM19.1475 6.61125C19.6238 7.17625 20.32 7.5 21.0575 7.5H21.795L21.0275 9.47375C20.8713 9.875 20.9225 10.3275 21.165 10.6825C21.4087 11.0375 21.8112 11.25 22.2412 11.25H22.64C23.3762 11.25 24.0537 10.8487 24.35 10.2875L26.5512 7.5H28.1238C29.1575 7.5 29.9988 6.65875 29.9988 5.625C29.9988 4.59125 29.1575 3.75 28.1238 3.75H26.5487L24.3875 1.05C24.035 0.4025 23.3575 0 22.6187 0H22.2463C21.8138 0 21.4112 0.2125 21.1687 0.57C20.9262 0.9275 20.8762 1.38 21.035 1.7825L21.8112 3.75H21.3713L20.2312 2.96875C19.5212 2.26 18.2213 2.42875 17.7163 3.2975C17.4275 3.79625 17.425 4.3925 17.7762 4.98625L19.1475 6.61125ZM18.7987 3.925C18.8287 3.8725 18.92 3.75 19.1012 3.75C19.1925 3.75 19.2838 3.7875 19.4338 3.92375L20.8212 4.8875C20.9262 4.96 21.0512 4.99875 21.1775 4.99875H22.7288C22.935 4.99875 23.1288 4.89625 23.245 4.725C23.3625 4.55375 23.385 4.33625 23.31 4.14375L22.2463 1.24875H22.6187C22.8987 1.24875 23.1562 1.40125 23.35 1.7375L25.7612 4.76375C25.88 4.9125 26.0588 4.99875 26.25 4.99875H28.125C28.4688 4.99875 28.75 5.27875 28.75 5.62375C28.75 5.96875 28.4688 6.24875 28.125 6.24875H26.25C26.0588 6.24875 25.8775 6.33625 25.7588 6.48625L23.3125 9.59875C23.1787 9.845 22.9213 9.9975 22.6413 9.9975H22.1925L23.2912 7.09875C23.3662 6.90625 23.3412 6.69 23.225 6.52C23.1075 6.35 22.915 6.2475 22.7087 6.2475H21.0588C20.69 6.2475 20.3425 6.085 20.1025 5.80375L18.7975 4.27125C18.7075 4.11375 18.7687 3.975 18.7975 3.9225L18.7987 3.925ZM5.955 28.935C6.1975 29.18 6.195 29.5763 5.95 29.8187C5.70625 30.0625 5.30875 30.06 5.06625 29.815C1.79875 26.5162 0 22.1437 0 17.5C0 9.38375 5.73125 2.8575 14.26 1.26C14.5938 1.20125 14.925 1.41875 14.9888 1.76C15.0525 2.09875 14.8287 2.425 14.49 2.48875C6.57125 3.9725 1.25 10.0037 1.25 17.5C1.25 21.8113 2.92125 25.8725 5.955 28.935Z" fill="white"/>
</svg>
